<svg xmlns="http://www.w3.org/2000/svg" width="1024.192" height="447.649"><path d="M276.637 318.1c-14.025-4.734-30.371-4.452-47.062.812-15.778 4.975-19.81 7.7-33.573 22.687l-12.488 13.599-9.007-8.762c-4.954-4.818-10.411-10.017-12.128-11.551l-3.12-2.79-18.38 4.664C85.666 350.771 41.014 370.99 5.75 397.944 2.587 400.36 0 402.123 0 401.858c0-.264.924-6.028 2.053-12.808 16.889-101.406 61.36-196.11 130.935-278.828 23.874-28.385 63.285-65.356 90.012-84.44 18.585-13.27 39.079-23.924 48.502-25.216L275.634 0l7.433 19.124c6.972 17.938 7.619 19.174 10.433 19.948 1.65.454 27.637 7.054 57.75 14.667L406 67.582l4.132 6.342c14.83 22.763 24.63 12.805 26.521-26.952.36-7.563.923-13.742 1.25-13.733.329.01 6.222 5.217 13.097 11.572l12.5 11.554 5.5-.52c3.025-.287 10.45-1.198 16.5-2.026 13.948-1.907 38.76-1.922 53-.032 6.05.803 13.492 1.734 16.538 2.068l5.538.607 12.32-11.37c6.775-6.254 12.65-11.497 13.056-11.652.405-.155 1.036 5.47 1.401 12.5.716 13.764 3.423 29.015 6.055 34.105 2.185 4.224 5.707 6.437 8.95 5.623 2.95-.74 8.869-6.866 13.032-13.486l2.854-4.54 54.128-13.72c29.77-7.546 55.751-14.17 57.736-14.718 3.59-.993 3.641-1.084 11-19.99 8.383-21.54 7.31-20.54 18.174-16.92 18.122 6.036 47.322 25.578 76.53 51.216 14.106 12.383 44.036 43.194 56.546 58.212 70.684 84.934 114.97 188.356 131.144 286.297l.69 4.297-10.846-7.961c-35.556-26.1-79.832-45.384-135.7-59.103l-12.854-3.156-11.857 11.607-11.857 11.607-7.287-7.794c-19.868-21.251-19.598-21.023-29.791-25.162-21.576-8.762-40.358-9.994-57.388-3.763L512.91 447.647z" fill="#c90"/></svg>