<?xml version="1.0" encoding="UTF-8" standalone="no"?>
<!-- Created with Inkscape (http://www.inkscape.org/) -->

<svg xmlns:dc="http://purl.org/dc/elements/1.1/" xmlns:cc="http://creativecommons.org/ns#" xmlns:rdf="http://www.w3.org/1999/02/22-rdf-syntax-ns#" xmlns:svg="http://www.w3.org/2000/svg" xmlns="http://www.w3.org/2000/svg" xmlns:sodipodi="http://sodipodi.sourceforge.net/DTD/sodipodi-0.dtd" xmlns:inkscape="http://www.inkscape.org/namespaces/inkscape" id="svg2993" version="1.1" inkscape:version="0.48.5 r10040" width="1024.1919" height="447.64941" sodipodi:docname="Batman_symbol_(2016-present).svg">
  <metadata id="metadata2999">
    <rdf:RDF>
      <cc:Work rdf:about="">
        <dc:format>image/svg+xml</dc:format>
        <dc:type rdf:resource="http://purl.org/dc/dcmitype/StillImage" />
        <dc:title></dc:title>
      </cc:Work>
    </rdf:RDF>
  </metadata>
  <defs id="defs2997" />
  <sodipodi:namedview pagecolor="#ffffff" bordercolor="#666666" borderopacity="1" objecttolerance="10" gridtolerance="10" guidetolerance="10" inkscape:pageopacity="0" inkscape:pageshadow="2" inkscape:window-width="1366" inkscape:window-height="706" id="namedview2995" showgrid="false" fit-margin-top="0" fit-margin-left="0" fit-margin-right="0" fit-margin-bottom="0" inkscape:zoom="0.20163592" inkscape:cx="1057.3138" inkscape:cy="-381.89119" inkscape:window-x="-8" inkscape:window-y="-8" inkscape:window-maximized="1" inkscape:current-layer="svg2993" />
  <path style="fill:#cc9900" d="m 276.63745,318.10093 c -14.02501,-4.73481 -30.37142,-4.45323 -47.06265,0.81069 -15.7776,4.97578 -19.8105,7.70107 -33.5727,22.68739 l -12.4883,13.59903 -9.0069,-8.76164 c -4.9538,-4.8189 -10.4112,-10.01705 -12.1276,-11.55145 l -3.1208,-2.7898 -18.3792,4.66418 C 85.6658,350.77113 41.0144,370.9885 5.75,397.94351 2.5875,400.36083 0,402.12251 0,401.85835 0,401.5942 0.924,395.8304 2.0532,389.04991 18.9416,287.64407 63.4133,192.94044 132.9875,110.22174 156.8617,81.83712 196.2728,44.86637 223,25.78291 241.58543,12.51278 262.07904,1.85797 271.50173,0.56645 L 275.63441,0 l 7.43282,19.12355 c 6.97221,17.93849 7.61871,19.17467 10.43281,19.94866 1.65,0.45382 27.63739,7.05407 57.74975,14.66722 l 54.74974,13.84209 4.13205,6.34211 c 14.83112,22.76367 24.6308,12.80506 26.52178,-26.95189 0.35969,-7.5625 0.92235,-13.74212 1.25034,-13.73248 0.32798,0.01 6.22134,5.21684 13.09634,11.57156 l 12.5,11.55404 5.5,-0.52065 c 3.025,-0.28636 10.45,-1.19757 16.5,-2.02491 13.94796,-1.90737 38.7598,-1.9225 53,-0.0323 6.05,0.80306 13.49215,1.73354 16.5381,2.06773 l 5.53811,0.60763 12.31931,-11.37031 c 6.77562,-6.25367 12.65095,-11.49697 13.05628,-11.65177 0.40534,-0.1548 1.03592,5.4702 1.4013,12.5 0.71537,13.76368 3.42316,29.01433 6.0553,34.10434 2.18447,4.22428 5.70672,6.43732 8.95002,5.6233 2.94883,-0.74011 8.86823,-6.86621 13.03106,-13.48608 l 2.85487,-4.53991 54.12782,-13.72009 c 29.77031,-7.54605 55.75128,-14.16906 57.73549,-14.7178 3.59118,-0.99314 3.64142,-1.08444 11,-19.98994 8.38376,-21.53938 7.31013,-20.53977 18.17389,-16.9209 18.12198,6.03668 47.32281,25.57914 76.52989,51.21711 14.10682,12.38297 44.03649,43.19384 56.54655,58.21144 70.68428,84.9347 114.97027,188.35668 131.14347,286.29735 l 0.6903,4.29734 -10.8459,-7.96163 C 977.79044,368.25465 933.51448,348.97063 877.64619,335.25196 l -12.85385,-3.15632 -11.85715,11.60713 -11.85714,11.60713 -7.28691,-7.79407 c -19.86826,-21.25111 -19.59823,-21.02303 -29.7911,-25.16231 -21.57581,-8.76183 -40.35806,-9.9932 -57.38786,-3.76237 l -233.70345,129.0555 z" id="path3003" inkscape:connector-curvature="0" sodipodi:nodetypes="csscsccssssssscssscsscscsssscsssssscssssscccsscccssccc" />
</svg>
